<svg data-v-fde0c5aa="" xmlns="http://www.w3.org/2000/svg" viewBox="0 0 300 300" class="iconAbove"><defs data-v-fde0c5aa=""></defs><rect data-v-fde0c5aa="" fill="#000000" x="0" y="0" width="300px" height="300px" class="logo-background-square"></rect><defs data-v-fde0c5aa=""></defs><g data-v-fde0c5aa="" id="d25e49f7-ee9a-4467-822e-911a9a7b2e76" fill="#FFFFFF" transform="matrix(4.159999999999999,0,0,4.159999999999999,16.50559986114505,167.17440063476562)"><path d="M0.84 13.01L0.84 13.01Q1.27 10.92 1.27 8.68Q1.27 6.44 0.92 4.14L0.92 4.14Q2.83 3.61 4.30 3.61L4.30 3.61Q6.48 3.61 7.62 4.75Q8.76 5.89 8.76 8.22Q8.76 10.54 7.47 12.13Q6.17 13.72 3.88 13.72L3.88 13.72Q2.31 13.72 0.84 13.01ZM3.01 5.03L3.01 5.03Q2.88 6.73 2.88 8.34Q2.88 9.94 3.04 12.21L3.04 12.21Q3.61 12.40 4.33 12.40Q5.04 12.40 5.57 12.08Q6.09 11.75 6.37 11.17L6.37 11.17Q6.92 10.08 6.92 8.50L6.92 8.50Q6.92 6.97 6.33 5.98L6.33 5.98Q5.68 4.86 4.33 4.86L4.33 4.86Q3.58 4.86 3.01 5.03ZM11.97 13.47Q11.54 13.64 11.05 13.64Q10.56 13.64 10.26 13.41Q9.95 13.17 9.95 12.76Q9.95 12.35 10.08 11.26Q10.21 10.16 10.21 9.14Q10.21 8.11 9.88 6.72L9.88 6.72Q10.33 6.55 10.77 6.55Q11.20 6.55 11.52 6.85Q11.83 7.14 11.83 7.63L11.83 7.63Q11.83 7.88 11.75 8.38Q11.66 8.88 11.65 9.13L11.65 9.13Q12.19 7.88 12.94 7.18Q13.69 6.47 14.43 6.47L14.43 6.47Q14.95 6.47 15.26 6.83Q15.57 7.20 15.57 7.75Q15.57 8.30 15.29 8.64Q15.01 8.99 14.60 8.99Q14.18 8.99 13.93 8.90L13.93 8.90Q13.97 8.74 13.97 8.60L13.97 8.60Q13.97 8.02 13.57 8.02L13.57 8.02Q12.95 8.02 12.41 9.26Q11.87 10.50 11.69 11.58L11.69 11.58Q11.76 12.63 11.97 13.47L11.97 13.47ZM16.37 6.68L16.37 6.68Q16.81 6.55 17.27 6.55Q17.72 6.55 18.05 6.83Q18.37 7.11 18.37 7.55Q18.37 7.99 18.22 9.08Q18.07 10.16 18.07 10.77L18.07 10.77Q18.07 12.33 18.37 13.47L18.37 13.47Q17.93 13.64 17.43 13.64Q16.93 13.64 16.63 13.41Q16.34 13.17 16.34 12.73Q16.34 12.29 16.51 11.28Q16.67 10.28 16.67 9.62L16.67 9.62Q16.67 7.87 16.37 6.68ZM16.55 3.51L16.55 3.51Q17.04 3.29 17.51 3.29Q17.99 3.29 18.22 3.54Q18.45 3.78 18.45 4.26Q18.45 4.73 18.14 5.10Q17.82 5.46 17.32 5.46L17.32 5.46Q16.28 5.46 16.28 4.38L16.28 4.38Q16.28 3.91 16.55 3.51ZM25.35 11.42Q24.86 12.38 24.12 13.05Q23.38 13.72 22.64 13.72Q21.90 13.72 21.50 13.21Q21.10 12.70 20.93 11.89Q20.76 11.09 20.63 10.23Q20.50 9.38 20.17 8.57Q19.85 7.76 19.29 7.35L19.29 7.35Q19.47 7.01 19.84 6.78Q20.20 6.55 20.62 6.55L20.62 6.55Q21.28 6.55 21.69 7.40Q22.09 8.25 22.21 9.27Q22.33 10.29 22.48 11.25Q22.62 12.21 22.82 12.35L22.82 12.35Q23.30 12.32 23.65 11.74Q24.01 11.16 24.18 10.33L24.18 10.33Q24.49 8.82 24.49 7.97Q24.49 7.11 24.40 6.65L24.40 6.65Q24.89 6.55 25.24 6.55L25.24 6.55Q26.45 6.55 26.45 7.70L26.45 7.70Q26.45 8.43 26.15 9.44Q25.84 10.46 25.35 11.42ZM28.57 10.46L28.57 10.46Q28.57 11.47 28.90 12.05Q29.22 12.63 29.97 12.63Q30.73 12.63 31.16 12.12Q31.58 11.61 31.58 10.88L31.58 10.88Q32.06 10.88 32.41 11.12Q32.76 11.35 32.76 11.77L32.76 11.77Q32.76 12.64 31.84 13.22Q30.91 13.80 29.89 13.80L29.89 13.80Q28.29 13.80 27.58 12.94Q26.87 12.08 26.87 10.39Q26.87 8.69 27.83 7.54Q28.78 6.38 30.38 6.38L30.38 6.38Q31.47 6.38 32.14 6.88Q32.80 7.38 32.80 8.42Q32.80 9.46 31.86 9.99Q30.91 10.51 29.55 10.51L29.55 10.51Q29.08 10.51 28.57 10.46ZM28.59 9.35L28.59 9.35Q29.01 9.44 29.47 9.44L29.47 9.44Q30.48 9.44 31.16 9.06L31.16 9.06Q31.25 8.72 31.25 8.53L31.25 8.53Q31.25 8.04 30.90 7.78Q30.55 7.53 29.94 7.53Q29.33 7.53 28.84 7.92L28.84 7.92Q28.59 8.65 28.59 9.35ZM38.65 6.72L38.65 6.72Q38.71 6.44 38.71 6.15L38.71 6.15Q38.71 4.79 37.38 4.79L37.38 4.79Q36.78 4.79 36.36 5.04L36.36 5.04Q35.97 5.50 35.97 6.15L35.97 6.15Q35.97 6.57 36.33 6.87Q36.69 7.17 37.23 7.34Q37.77 7.50 38.40 7.76Q39.03 8.01 39.57 8.30Q40.11 8.58 40.47 9.15Q40.84 9.72 40.84 10.49L40.84 10.49Q40.84 11.96 39.71 12.88Q38.58 13.80 37.00 13.80L37.00 13.80Q35.73 13.80 34.84 13.17Q33.95 12.53 33.95 11.38L33.95 11.38Q33.95 10.79 34.31 10.40Q34.66 10.00 35.16 10.00Q35.66 10.00 35.90 10.12L35.90 10.12Q35.78 10.54 35.78 10.88L35.78 10.88Q35.78 11.63 36.21 12.08Q36.64 12.52 37.39 12.52Q38.15 12.52 38.61 12.12Q39.07 11.73 39.07 11.08Q39.07 10.43 38.56 10.01Q38.05 9.59 37.32 9.34Q36.60 9.09 35.87 8.81Q35.14 8.53 34.63 7.97Q34.12 7.42 34.12 6.58L34.12 6.58Q34.12 5.26 35.26 4.40Q36.40 3.53 37.84 3.53L37.84 3.53Q38.91 3.53 39.68 3.96Q40.46 4.38 40.46 5.25L40.46 5.25Q40.46 5.88 40.05 6.32Q39.65 6.76 39.03 6.76L39.03 6.76Q38.86 6.76 38.65 6.72ZM44.77 13.80L44.77 13.80Q43.27 13.80 42.48 13.01Q41.68 12.21 41.68 10.71L41.68 10.71Q41.68 8.89 42.70 7.64Q43.72 6.38 45.42 6.38L45.42 6.38Q46.38 6.38 46.98 6.77Q47.59 7.15 47.59 7.91L47.59 7.91Q47.59 8.40 47.19 8.79Q46.80 9.17 46.31 9.17L46.31 9.17Q46.20 9.17 46.03 9.14L46.03 9.14Q46.07 8.96 46.07 8.82L46.07 8.82Q46.07 8.32 45.81 7.97Q45.54 7.62 44.93 7.62Q44.31 7.62 43.78 8.12L43.78 8.12Q43.40 9.10 43.40 10.57L43.40 10.57Q43.40 12.57 44.91 12.57L44.91 12.57Q45.72 12.57 46.12 12.05Q46.52 11.52 46.52 10.86L46.52 10.86Q47.00 10.86 47.35 11.10Q47.70 11.34 47.70 11.76L47.70 11.76Q47.70 12.67 46.77 13.24Q45.84 13.80 44.77 13.80ZM55.33 7.04L55.33 7.04Q54.95 8.65 54.95 10.27Q54.95 11.89 55.31 13.47L55.31 13.47Q54.81 13.64 54.28 13.64Q53.75 13.64 53.54 13.32Q53.33 13.01 53.33 12.41Q53.33 11.82 53.51 10.78L53.51 10.78Q52.51 12.91 51.59 13.47L51.59 13.47Q51.17 13.72 50.72 13.72L50.72 13.72Q49.66 13.72 49.07 12.93Q48.48 12.14 48.48 10.96L48.48 10.96Q48.48 9.17 49.48 7.82Q50.47 6.47 52.06 6.47Q53.65 6.47 55.33 7.04ZM53.49 7.88L53.49 7.88Q52.75 7.66 52.23 7.66L52.23 7.66Q51.18 7.66 50.67 8.12L50.67 8.12Q50.19 9.30 50.19 10.51L50.19 10.51Q50.19 11.16 50.39 11.82Q50.60 12.47 51.02 12.47L51.02 12.47Q51.51 12.47 52.28 11.03Q53.05 9.59 53.49 7.88ZM63.08 7.98L63.08 7.98L62.94 11.06Q62.94 12.33 63.34 13.55L63.34 13.55Q62.94 13.72 62.44 13.72L62.44 13.72Q61.25 13.72 61.25 12.39L61.25 12.39Q61.25 11.79 61.40 10.37Q61.56 8.95 61.56 8.58L61.56 8.58Q61.56 7.88 60.93 7.88L60.93 7.88Q60.47 7.88 59.89 8.55Q59.30 9.21 58.89 10.03Q58.48 10.85 58.41 11.38L58.41 11.38Q58.46 12.47 58.69 13.47L58.69 13.47Q58.24 13.64 57.76 13.64Q57.27 13.64 56.97 13.41Q56.67 13.17 56.67 12.76Q56.67 12.35 56.80 11.28Q56.92 10.21 56.92 9.15Q56.92 8.09 56.60 6.72L56.60 6.72Q57.05 6.55 57.55 6.55Q58.06 6.55 58.37 6.85Q58.69 7.14 58.69 7.57Q58.69 8.01 58.58 8.96L58.58 8.96Q59.11 7.97 59.96 7.22Q60.82 6.47 61.67 6.47L61.67 6.47Q63.08 6.47 63.08 7.98Z"></path></g><defs data-v-fde0c5aa=""></defs><g data-v-fde0c5aa="" id="44ef4936-08ac-4b6e-84a6-b23b407a6de3" stroke="none" fill="#F2F2F4" transform="matrix(1.0795457025221833,0,0,1.0795457025221833,95.48294202262974,65.16191439781662)"><path d="M52.5 25.5h3v-10h-3v10zm-7 0h3v-10h-3v10zm16 3v-19h-22v19h-8V73c0 11 6.5 17.5 17.5 17.5h3c11.8 0 17.5-5.7 17.5-17.5V28.5h-8zm-19-16h16v16h-16v-16zm24 60.5c0 10-4.5 14.5-14.5 14.5h-3c-5.4 0-14.5-1.9-14.5-14.5V37.5h32V73zm0-38.5h-32v-3h32v3zm-3 38v-6h-3v6c.2 4.2-1.7 9-9 9v3c9.2 0 12.3-6.2 12-12z"></path></g></svg>